<?xml version="1.0" encoding="utf-8"?>
<!-- Svg Vector Icons : http://www.onlinewebfonts.com/icon -->
<!DOCTYPE svg PUBLIC "-//W3C//DTD SVG 1.1//EN" "http://www.w3.org/Graphics/SVG/1.1/DTD/svg11.dtd">
<svg version="1.1"  width="25px" height="25px" xmlns="http://www.w3.org/2000/svg" xmlns:xlink="http://www.w3.org/1999/xlink" x="0px" y="0px" viewBox="0 0 1000 1000" enable-background="new 0 0 1000 1000" xml:space="preserve">
<metadata> Svg Vector Icons : http://www.onlinewebfonts.com/icon </metadata>
<g><g transform="translate(0.000000,511.000000) scale(0.100000,-0.100000)"><path d="M4832.9,4427.7v-493h175.3h175.3v493v493h-175.3h-175.3V4427.7z"/><path d="M2170.6,4811.1c-72.3-48.2-129.3-98.6-127.1-109.6c8.8-30.7,554.4-788.8,569.7-788.8c37.2,0,267.3,190.6,258.5,214.7c-13.1,39.5-543.4,769.1-558.7,771.3C2306.5,4898.7,2242.9,4859.3,2170.6,4811.1z"/><path d="M7720.8,4828.6c-30.7-39.4-160-216.9-289.2-394.4l-232.3-324.3l133.7-98.6c74.5-54.8,140.2-98.6,149-98.6c13.1,0,554.4,751.6,567.5,788.8c6.6,15.3-238.8,197.2-265.1,197.2C7777.8,4898.7,7749.3,4865.9,7720.8,4828.6z"/><path d="M3119.4,3244.4c-764.7-144.6-1376-714.3-1586.4-1479c-54.8-201.6-57-742.8-2.2-942.2c111.8-411.9,252-644.2,620.1-1027.7c157.8-164.3,865.5-874.3,1573.2-1579.8l1284-1279.6l1536,1531.6C7387.8-688.7,8121.8,60.7,8174.4,133c243.2,339.6,361.5,716.5,361.5,1154.7c0,523.7-199.4,1003.5-569.7,1378.2c-401,403.2-863.3,598.2-1424.3,598.2c-523.7-2.2-933.4-159.9-1354.1-521.5c-162.2-140.2-197.2-135.9-422.9,52.6c-216.9,181.9-541.2,350.6-797.6,418.5C3735.1,3272.9,3345.1,3288.3,3119.4,3244.4z"/><path d="M211.7,2722.9c-11-26.3-39.4-100.8-65.7-164.3l-46-116.1l50.4-17.5c26.3-11,230.1-89.8,449.2-177.5c221.3-87.6,411.9-149,420.7-140.2c19.7,21.9,133.7,298,124.9,304.6c-4.4,4.4-328.7,131.5-799.8,315.5l-116.1,46L211.7,2722.9z"/><path d="M9335.7,2595.8c-241-94.2-444.8-175.3-455.8-177.5c-17.5-6.6,83.3-276.1,116.1-311.1c15.3-15.3,861.1,298,902.8,335.2c13.1,11-87.6,291.4-113.9,315.5C9778.3,2764.6,9576.7,2690.1,9335.7,2595.8z"/><path d="M1042.2-671.2C794.6-767.5,590.8-850.8,588.6-853c-8.8-6.6,105.2-282.7,122.7-302.4c13.1-13.2,887.4,315.5,918.1,346.2c6.6,6.6-105.2,278.3-124.9,300.2C1497.9-502.4,1289.8-574.7,1042.2-671.2z"/><path d="M8494.3-541.9c-11-26.3-41.6-96.4-65.7-155.6c-26.3-59.2-43.8-109.6-41.6-111.7c35-32.9,902.8-361.5,915.9-346.2c19.7,19.7,133.7,295.8,124.9,302.4c-4.4,4.4-328.7,131.5-799.8,315.5l-116.1,46L8494.3-541.9z"/><path d="M2332.8-2687c-149-208.2-278.3-387.8-287-401c-11-15.3,37.3-65.7,124.9-127.1l142.4-103l83.3,116.1c238.8,324.3,486.4,670.5,486.4,679.3c0,8.8-201.6,166.5-254.2,197.2C2615.4-2318.9,2490.5-2470.1,2332.8-2687z"/><path d="M7341.7-2413.1c-72.3-52.6-129.3-105.2-127.1-116.1c4.4-17.5,514.9-731.9,552.2-773.5c13.1-13.2,287,173.1,287,197.2c0,13.1-550,773.5-567.5,782.3C7479.8-2318.9,7414.1-2360.5,7341.7-2413.1z"/><path d="M4832.9-4194.5v-506.1l170.9,6.6l168.7,6.6v493v493l-168.7,6.6l-170.9,6.6V-4194.5z"/></g></g>
</svg>