<?xml version="1.0" encoding="utf-8"?>
<!-- Generator: Adobe Illustrator 24.3.0, SVG Export Plug-In . SVG Version: 6.00 Build 0)  -->
<svg version="1.1" id="Calque_1" xmlns="http://www.w3.org/2000/svg" xmlns:xlink="http://www.w3.org/1999/xlink" x="0px" y="0px"
	 viewBox="0 0 1920 1080" style="enable-background:new 0 0 1920 1080;" xml:space="preserve">
<style type="text/css">
	.st0{fill:#FBF8EE;}
	.st1{fill:#FCB041;}
	.st2{fill:#F97911;}
	.st3{fill:#050505;}
	.st4{fill:#414143;}
	.st5{fill:none;}
	.st6{font-family:'Zawtturee-Regular';}
	.st7{font-size:30px;}
	.st8{font-size:96px;}
	.st9{fill:#FFFFFF;}
	.st10{font-family:'Onetwothirty-four';}
	.st11{font-size:61px;}
	.st12{font-family:'CavasDemo';}
	.st13{font-size:65px;}
</style>
<rect x="2" y="66" class="st0" width="756" height="937"/>
<path class="st1" d="M512.16,505.61c0-181.18-274.65-204.75-287.32-0.24l48.25,0.24c-0.18-7.41,0.44-14.46,1.77-21.11
	c18.83-94.13,178.95-110.22,189.13,21.11H512.16z"/>
<polygon class="st1" points="280.7,661.36 368.44,725.25 456.64,661.36 "/>
<path class="st2" d="M274.86,484.02l-50.01,21.11h48.24C272.89,498.09,273.49,491.06,274.86,484.02z"/>
<path class="st2" d="M472.12,403.51l-49.84,21.89c26.81,19.36,39.93,47.85,41.71,80.21h48.17
	C511.44,464.82,499.05,430.27,472.12,403.51z"/>
<polygon class="st2" points="415.06,691.48 280.7,661.36 368.44,725.25 "/>
<g>
	<line x1="179.19" y1="521.77" x2="565.56" y2="521.77"/>
	<path class="st3" d="M179.19,521.47c32.2-2.12,64.39-3.23,96.59-3.98l12.07-0.3l12.07-0.19l24.15-0.36l48.3-0.27
		c16.1,0.1,32.2,0.11,48.3,0.28l24.15,0.36l12.07,0.2l12.07,0.3c32.2,0.75,64.39,1.85,96.59,3.96v0.6l-193.18,0.3l-193.18-0.3
		V521.47z"/>
</g>
<g>
	<line x1="179.19" y1="650.56" x2="565.56" y2="650.56"/>
	<path class="st3" d="M179.19,650.26c32.2-2.12,64.39-3.23,96.59-3.98l12.07-0.3l12.07-0.19l24.15-0.36l48.3-0.27
		c16.1,0.1,32.2,0.11,48.3,0.28l24.15,0.36l12.07,0.2l12.07,0.3c32.2,0.75,64.39,1.85,96.59,3.96v0.6l-193.18,0.3l-193.18-0.3
		V650.26z"/>
</g>
<path class="st4" d="M427.27,431.28c-0.32-2.06-0.41-4.13-0.41-6.23c0-0.04,0-0.08,0.01-0.12c0-0.15-0.01-0.3-0.01-0.44
	c0-0.23,0.02-0.45,0.06-0.66l-0.33-0.5c-0.11-0.58-0.2-0.92-0.24-1.27c-0.87-8.28-1.81-16.55-2.53-24.84
	c-0.19-2.14-0.9-2.91-3.02-2.71c-1.66,0.16-3.35,0.03-4.79,0.03c0-3.86,0.13-7.31-0.02-10.74c-0.52-11.76-6.99-20.23-17.9-23.4
	c-2.38-0.69-4.88-0.99-7.49-1.51c-0.03-0.37-0.09-0.85-0.11-1.34c-0.38-8.71-3.43-16.38-9.22-22.89
	c-7.85-8.81-19.03-11.6-29.06-7.24c-6.45,2.81-10.47,8.11-13.69,14.09c-4.86,9.02-7.27,18.86-9.1,28.8
	c-1.36,7.39-1.89,14.94-2.67,22.43c-0.15,1.43-0.64,1.83-1.97,1.8c-3.37-0.06-6.75,0.03-10.13-0.03c-1.34-0.02-1.95,0.45-2.08,1.81
	c-0.56,5.93-1.21,11.85-1.79,17.78c-1.17,12.07-2.27,24.14-3.49,36.2c-1.62,15.99-3.33,31.97-4.99,47.95
	c-0.27,2.6-0.47,5.21-0.71,7.87h133.17c-2.56-24.95-5.11-49.73-7.7-75C427.13,431.19,427.2,431.23,427.27,431.28z M332.49,412.8
	c-0.89,2.68-3.37,4.16-6.24,3.73c-2.52-0.38-4.5-2.62-4.6-5.19c-0.1-2.69,1.53-4.8,4.51-5.42c0,1.75,0.01,3.43,0,5.12
	c-0.01,1.23,0.16,2.45,1.69,2.49c1.62,0.04,1.93-1.2,1.94-2.52c0.01-1.43,0-2.85,0-4.56C332.41,407.93,333.32,410.31,332.49,412.8z
	 M330.52,394.54c-0.1-0.59-0.25-1-0.22-1.39c1.16-13.45,2.53-26.86,6.77-39.78c1.89-5.75,4.32-11.26,8.08-16.08
	c7.79-9.97,20.41-11.55,30.24-3.57c7.48,6.07,11.24,14.14,11.79,23.75c0.09,1.49-0.38,2.03-1.87,2.44c-6.77,1.86-11.48,6-13.47,12.9
	c-0.04,0.14-0.09,0.27-0.13,0.41c-0.77,3.32-0.12,6.11,1.82,7.25c2.71,1.58,5.01,0.22,7.13-1.32c5.51-4.01,8.6-9.48,9.71-16.62
	c5.87,0.09,11.05,1.82,15.38,5.94c4.87,4.64,6.36,10.61,6.66,16.99c0.11,2.42-0.27,4.87-0.31,7.3c-0.02,1.45-0.67,1.84-2,1.78
	c-1.79-0.08-3.59-0.02-5.39-0.02c-23.78,0-47.55,0-71.33,0H330.52z M386.56,363.3c-1.2,5.62-3.85,10.05-8.48,13.15
	c-0.68,0.46-1.68,0.45-2.53,0.66c-0.13-0.88-0.48-1.79-0.34-2.62C376.09,369.29,381.07,364.36,386.56,363.3z M413.81,413.95
	c-1.37,2.32-4.45,3.33-6.94,2.27c-2.49-1.06-3.91-3.94-3.23-6.56c0.66-2.52,2.94-4.12,5.77-3.86c-0.55,1.65-1.09,3.25-1.63,4.86
	c-0.41,1.21-0.43,2.52,1.02,2.73c0.72,0.1,1.91-0.75,2.34-1.49c0.77-1.31,1.13-2.86,1.68-4.37
	C414.85,409.27,415.16,411.66,413.81,413.95z"/>
<rect x="296.58" y="606.23" class="st5" width="1064.42" height="312.5"/>
<text transform="matrix(1 0 0 1 296.5753 624.5563)" class="st6 st7">You Buy Or what</text>
<g>
	<g>
		<path d="M348.86,544.26c2.4,0.7,4.73,1.38,7.05,2.05c5.12,1.49,10.23,2.98,15.35,4.49c2.33,0.69,4.66,1.4,6.98,2.14
			c0.41,0.13,0.81,0.38,1.16,0.65c0.36,0.28,0.35,0.61-0.02,0.96c-0.79,0.75-1.51,1.58-2.32,2.31c-0.58,0.53-1.26,0.95-1.89,1.41
			c-0.64,0.47-1.25,0.98-1.92,1.4c-3.25,2.03-6.75,3.48-10.49,4.34c-4.37,1-8.78,1.23-13.24,0.92c-0.43-0.03-0.62-0.18-0.77-0.57
			c-0.63-1.68-0.9-3.41-0.8-5.2c0.27-4.8,0.56-9.59,0.85-14.39C348.78,544.63,348.82,544.49,348.86,544.26z"/>
		<path d="M349.49,575.05c-5.05-3.13-7.68-7.6-7.46-13.62c0.14-3.85,0.31-7.69,0.47-11.54c0.22-5.6-3.14-10.43-8.47-12.16
			c-0.96-0.31-1.54-1.27-1.27-2.12c0.32-1.05,1.23-1.55,2.31-1.17c6,2.07,9.58,6.25,10.69,12.49c0.47,2.62,0.04,5.26-0.03,7.89
			c-0.06,2.4-0.25,4.8-0.28,7.19c-0.06,3.98,1.56,7.14,4.78,9.51c1.58,1.16,3.45,1.63,5.25,2.23c3.26,1.09,6.54,2.13,9.8,3.21
			c2.82,0.92,5.63,1.84,8.44,2.8c0.65,0.22,1.38,0.35,1.82,1.04c0.54,0.86,0.11,1.97-0.84,2.32c-0.86,0.32-1.56-0.11-2.28-0.33
			c-2.38-0.74-4.74-1.58-7.11-2.35c-2.56-0.83-5.14-1.59-7.69-2.42c-2.36-0.77-4.71-1.57-7.05-2.38
			C350.17,575.5,349.84,575.24,349.49,575.05z"/>
		<path d="M356.87,571.88c2.44-0.09,4.61-0.57,6.71-1.36c4.25-1.59,7.79-4.21,10.9-7.46c2.3-2.41,4.22-5.11,5.98-7.92
			c0.09-0.14,0.19-0.27,0.37-0.51c0.35,0.41,0.7,0.75,0.96,1.14c1.92,2.92,2.34,5.95,0.69,9.15c-0.49,0.96-0.9,1.96-1.36,2.94
			c-0.62,1.32-1.27,2.64-1.89,3.96c-0.56,1.19-1.09,2.4-1.66,3.58c-0.33,0.68-0.71,1.33-1.09,1.98c-0.22,0.36-0.55,0.39-0.95,0.26
			c-2.11-0.65-4.22-1.27-6.33-1.91c-3.98-1.21-7.96-2.43-11.94-3.65C357.19,572.07,357.12,572.02,356.87,571.88z"/>
		<path d="M367.8,586c2.28,1.29,2.59,3.75,1.5,5.59c-1.13,1.9-3.24,2.75-5.57,1.51c-2.02-1.08-2.63-3.59-1.48-5.63
			C363.38,585.48,365.77,584.84,367.8,586z"/>
		<path d="M353.05,586.35c-0.95,1.91-3.62,2.7-5.58,1.49c-1.89-1.16-2.57-3.54-1.46-5.55c1.09-1.96,3.5-2.6,5.51-1.57
			C353.39,581.68,354.34,584.34,353.05,586.35z"/>
	</g>
</g>
<g>
	<rect x="246.86" y="534.32" class="st5" width="712" height="254.08"/>
	<text transform="matrix(1 0 0 1 246.8575 592.9729)" class="st6 st8">You  Buy </text>
</g>
<rect x="334.49" y="447.03" class="st5" width="180.51" height="77.07"/>
<text transform="matrix(1 0 0 1 334.4946 482.9187)" class="st9 st10 st11">WLA</text>
<path class="st1" d="M1125.16,496.61c0-181.18-274.65-204.75-287.32-0.24l48.25,0.24c-0.18-7.41,0.44-14.46,1.77-21.11
	c18.83-94.13,178.95-110.22,189.13,21.11H1125.16z"/>
<polygon class="st1" points="893.7,652.36 981.44,716.25 1069.64,652.36 "/>
<path class="st2" d="M1085.12,394.51l-49.84,21.89c26.81,19.36,39.93,47.85,41.71,80.21h48.17
	C1124.44,455.82,1112.05,421.27,1085.12,394.51z"/>
<polygon class="st2" points="1028.06,682.48 893.7,652.36 981.44,716.25 "/>
<g>
	<line x1="792.19" y1="512.77" x2="1178.56" y2="512.77"/>
	<path class="st3" d="M792.19,512.47c32.2-2.12,64.39-3.23,96.59-3.98l12.07-0.3l12.07-0.19l24.15-0.36l48.3-0.27
		c16.1,0.1,32.2,0.11,48.3,0.28l24.15,0.36l12.07,0.2l12.07,0.3c32.2,0.75,64.39,1.85,96.59,3.96v0.6l-193.18,0.3l-193.18-0.3
		V512.47z"/>
</g>
<g>
	<line x1="792.19" y1="641.56" x2="1178.56" y2="641.56"/>
	<path class="st3" d="M792.19,641.26c32.2-2.12,64.39-3.23,96.59-3.98l12.07-0.3l12.07-0.19l24.15-0.36l48.3-0.27
		c16.1,0.1,32.2,0.11,48.3,0.28l24.15,0.36l12.07,0.2l12.07,0.3c32.2,0.75,64.39,1.85,96.59,3.96v0.6l-193.18,0.3l-193.18-0.3
		V641.26z"/>
</g>
<path class="st4" d="M1040.27,422.28c-0.32-2.06-0.41-4.13-0.41-6.23c0-0.04,0-0.08,0.01-0.12c0-0.15-0.01-0.3-0.01-0.44
	c0-0.23,0.02-0.45,0.06-0.66l-0.33-0.5c-0.11-0.58-0.2-0.92-0.24-1.27c-0.87-8.28-1.81-16.55-2.53-24.84
	c-0.19-2.14-0.9-2.91-3.02-2.71c-1.66,0.16-3.35,0.03-4.79,0.03c0-3.86,0.13-7.31-0.02-10.74c-0.52-11.76-6.99-20.23-17.9-23.4
	c-2.38-0.69-4.88-0.99-7.49-1.51c-0.03-0.37-0.09-0.85-0.11-1.34c-0.38-8.71-3.43-16.38-9.22-22.89
	c-7.85-8.81-19.03-11.6-29.06-7.24c-6.46,2.81-10.47,8.11-13.69,14.09c-4.86,9.02-7.27,18.86-9.1,28.8
	c-1.36,7.39-1.89,14.94-2.67,22.43c-0.15,1.43-0.64,1.83-1.97,1.8c-3.37-0.06-6.75,0.03-10.13-0.03c-1.34-0.02-1.95,0.45-2.08,1.81
	c-0.56,5.93-1.21,11.85-1.79,17.78c-1.17,12.07-2.27,24.14-3.49,36.2c-1.62,15.99-3.33,31.97-4.99,47.95
	c-0.27,2.6-0.47,5.21-0.71,7.87h133.17c-2.56-24.95-5.11-49.73-7.7-75C1040.13,422.19,1040.2,422.23,1040.27,422.28z M945.49,403.8
	c-0.89,2.68-3.37,4.16-6.24,3.73c-2.52-0.38-4.5-2.62-4.6-5.19c-0.1-2.69,1.53-4.8,4.51-5.42c0,1.75,0.01,3.43,0,5.12
	c-0.01,1.23,0.16,2.45,1.69,2.49c1.62,0.04,1.93-1.2,1.94-2.52c0.01-1.43,0-2.85,0-4.56C945.41,398.93,946.32,401.31,945.49,403.8z
	 M943.52,385.54c-0.1-0.59-0.25-1-0.22-1.39c1.16-13.45,2.53-26.86,6.77-39.78c1.89-5.75,4.32-11.26,8.08-16.08
	c7.79-9.97,20.41-11.55,30.24-3.57c7.48,6.07,11.24,14.14,11.79,23.75c0.09,1.49-0.38,2.03-1.87,2.44c-6.77,1.86-11.48,6-13.47,12.9
	c-0.04,0.14-0.09,0.27-0.13,0.41c-0.77,3.32-0.12,6.11,1.82,7.25c2.71,1.58,5.01,0.22,7.13-1.32c5.51-4.01,8.6-9.48,9.71-16.62
	c5.87,0.09,11.05,1.82,15.38,5.94c4.87,4.64,6.36,10.61,6.66,16.99c0.11,2.42-0.27,4.87-0.31,7.3c-0.02,1.45-0.67,1.84-2,1.78
	c-1.79-0.08-3.59-0.02-5.39-0.02c-23.78,0-47.55,0-71.33,0H943.52z M999.56,354.3c-1.2,5.62-3.85,10.05-8.48,13.15
	c-0.68,0.46-1.68,0.45-2.53,0.66c-0.13-0.88-0.48-1.79-0.34-2.62C989.09,360.29,994.07,355.36,999.56,354.3z M1026.81,404.95
	c-1.37,2.32-4.45,3.33-6.94,2.27c-2.49-1.06-3.91-3.94-3.23-6.56c0.66-2.52,2.94-4.12,5.77-3.86c-0.55,1.65-1.09,3.25-1.63,4.86
	c-0.41,1.21-0.43,2.52,1.02,2.73c0.72,0.1,1.91-0.75,2.34-1.49c0.77-1.31,1.13-2.86,1.69-4.37
	C1027.85,400.27,1028.16,402.66,1026.81,404.95z"/>
<rect x="909.58" y="597.23" class="st5" width="1064.42" height="312.5"/>
<text transform="matrix(1 0 0 1 909.5753 615.5563)" class="st6 st7">You Buy Or what</text>
<g>
	<g>
		<path d="M970.43,550.23c1.65,0.48,3.25,0.95,4.84,1.41c3.51,1.03,7.03,2.05,10.54,3.08c1.6,0.47,3.2,0.96,4.8,1.47
			c0.28,0.09,0.56,0.26,0.79,0.44c0.25,0.19,0.24,0.42-0.02,0.66c-0.54,0.52-1.04,1.09-1.6,1.59c-0.4,0.36-0.86,0.65-1.3,0.97
			c-0.44,0.32-0.86,0.67-1.32,0.96c-2.23,1.39-4.64,2.39-7.21,2.98c-3,0.69-6.03,0.84-9.1,0.63c-0.29-0.02-0.43-0.12-0.53-0.39
			c-0.43-1.15-0.62-2.34-0.55-3.57c0.19-3.29,0.39-6.59,0.58-9.88C970.38,550.48,970.4,550.39,970.43,550.23z"/>
		<path d="M970.86,571.38c-3.47-2.15-5.28-5.22-5.13-9.35c0.1-2.64,0.22-5.28,0.32-7.93c0.15-3.85-2.16-7.17-5.82-8.36
			c-0.66-0.22-1.05-0.87-0.87-1.46c0.22-0.72,0.85-1.06,1.59-0.81c4.12,1.42,6.58,4.29,7.34,8.58c0.32,1.8,0.03,3.61-0.02,5.42
			c-0.04,1.65-0.17,3.29-0.19,4.94c-0.04,2.73,1.07,4.91,3.28,6.53c1.09,0.8,2.37,1.12,3.61,1.53c2.24,0.75,4.49,1.47,6.73,2.2
			c1.93,0.63,3.87,1.26,5.79,1.92c0.45,0.15,0.95,0.24,1.25,0.71c0.37,0.59,0.07,1.35-0.57,1.59c-0.59,0.22-1.07-0.07-1.57-0.23
			c-1.64-0.51-3.25-1.09-4.89-1.62c-1.76-0.57-3.53-1.1-5.28-1.67c-1.62-0.53-3.23-1.08-4.84-1.64
			C971.33,571.69,971.1,571.52,970.86,571.38z"/>
		<path d="M975.94,569.2c1.68-0.06,3.17-0.39,4.61-0.93c2.92-1.09,5.35-2.89,7.49-5.13c1.58-1.65,2.9-3.51,4.11-5.44
			c0.06-0.1,0.13-0.18,0.25-0.35c0.24,0.28,0.48,0.51,0.66,0.78c1.32,2,1.61,4.09,0.48,6.29c-0.34,0.66-0.62,1.35-0.93,2.02
			c-0.43,0.91-0.87,1.81-1.3,2.72c-0.38,0.82-0.75,1.65-1.14,2.46c-0.23,0.47-0.49,0.91-0.75,1.36c-0.15,0.25-0.38,0.26-0.65,0.18
			c-1.45-0.44-2.9-0.87-4.35-1.31c-2.74-0.83-5.47-1.67-8.2-2.5C976.15,569.34,976.11,569.3,975.94,569.2z"/>
		<path d="M983.44,578.9c1.56,0.89,1.78,2.58,1.03,3.84c-0.78,1.3-2.22,1.89-3.83,1.04c-1.39-0.74-1.81-2.47-1.01-3.86
			C980.41,578.54,982.04,578.11,983.44,578.9z"/>
		<path d="M973.31,579.15c-0.65,1.31-2.48,1.85-3.83,1.02c-1.3-0.79-1.77-2.43-1-3.81c0.75-1.35,2.4-1.79,3.79-1.08
			C973.55,575.94,974.2,577.76,973.31,579.15z"/>
	</g>
</g>
<g>
	<rect x="841.86" y="527.32" class="st5" width="712" height="254.08"/>
	<text transform="matrix(1 0 0 1 841.8575 576.0676)" class="st12 st13">You  Buy </text>
</g>
<rect x="947.49" y="438.03" class="st5" width="180.51" height="77.07"/>
<text transform="matrix(1 0 0 1 947.4946 473.9188)" class="st9 st10 st11">WLA</text>
<rect x="922.04" y="718" class="st0" width="123.72" height="70.99"/>
</svg>
