<!-- Generator: Adobe Illustrator 24.3.0, SVG Export Plug-In . SVG Version: 6.00 Build 0)  -->
<svg version="1.1" id="Calque_1" xmlns="http://www.w3.org/2000/svg" xmlns:xlink="http://www.w3.org/1999/xlink" x="100px" y="100px"
	 viewBox="0 0 1920 1080" style="enable-background:new 0 0 1920 1080;" xml:space="preserve">
<style type="text/css">
	.st0{fill:#F8F7EE;}
	.st1{fill:#F9B041;}
	.st2{fill:#F47916;}
	.st3{fill:#0B0A0A;}
	.st4{fill:#414143;}
	.st5{fill:none;}
	.st6{font-family:'Zawtturee-Regular';}
	.st7{font-size:30px;}
	.st8{font-family:'CavasDemo';}
	.st9{font-size:65px;}
	.st10{fill:#FFFFFF;}
	.st11{font-family:'Onetwothirty-four';}
	.st12{font-size:61px;}
</style>
<rect x="606" y="87" class="st0" width="50" height="60"/>
<g>
	<path class="st1" d="M1129.16,354.61c0-181.18-274.65-204.75-287.32-0.24l48.25,0.24c-0.18-7.41,0.44-14.46,1.77-21.11
		c18.83-94.13,178.95-110.22,189.13,21.11H1129.16z"/>
	<polygon class="st1" points="897.7,510.36 985.44,574.25 1073.64,510.36 	"/>
	<path class="st2" d="M1089.12,252.51l-49.84,21.89c26.81,19.36,39.93,47.85,41.71,80.21h48.17
		C1128.44,313.82,1116.05,279.27,1089.12,252.51z"/>
	<polygon class="st2" points="1032.06,540.48 897.7,510.36 985.44,574.25 	"/>
	<g>
		<line x1="796.19" y1="370.77" x2="1182.56" y2="370.77"/>
		<path class="st3" d="M796.19,370.47c32.2-2.12,64.39-3.23,96.59-3.98l12.07-0.3l12.07-0.19l24.15-0.36l48.3-0.27
			c16.1,0.1,32.2,0.11,48.3,0.28l24.15,0.36l12.07,0.2l12.07,0.3c32.2,0.75,64.39,1.85,96.59,3.96v0.6l-193.18,0.3l-193.18-0.3
			V370.47z"/>
	</g>
	<g>
		<line x1="796.19" y1="499.56" x2="1182.56" y2="499.56"/>
		<path class="st3" d="M796.19,499.26c32.2-2.12,64.39-3.23,96.59-3.98l12.07-0.3l12.07-0.19l24.15-0.36l48.3-0.27
			c16.1,0.1,32.2,0.11,48.3,0.28l24.15,0.36l12.07,0.2l12.07,0.3c32.2,0.75,64.39,1.85,96.59,3.96v0.6l-193.18,0.3l-193.18-0.3
			V499.26z"/>
	</g>
	<path class="st4" d="M1044.27,280.28c-0.32-2.06-0.41-4.13-0.41-6.23c0-0.04,0-0.08,0.01-0.12c0-0.15-0.01-0.3-0.01-0.44
		c0-0.23,0.02-0.45,0.06-0.66l-0.33-0.5c-0.11-0.58-0.2-0.92-0.24-1.27c-0.87-8.28-1.81-16.55-2.53-24.84
		c-0.19-2.14-0.9-2.91-3.02-2.71c-1.66,0.16-3.35,0.03-4.79,0.03c0-3.86,0.13-7.31-0.02-10.74c-0.52-11.76-6.99-20.23-17.9-23.4
		c-2.38-0.69-4.88-0.99-7.49-1.51c-0.03-0.37-0.09-0.85-0.11-1.34c-0.38-8.71-3.43-16.38-9.22-22.89
		c-7.85-8.81-19.03-11.6-29.06-7.24c-6.46,2.81-10.47,8.11-13.69,14.09c-4.86,9.02-7.27,18.86-9.1,28.8
		c-1.36,7.39-1.89,14.94-2.67,22.43c-0.15,1.43-0.64,1.83-1.97,1.8c-3.37-0.06-6.75,0.03-10.13-0.03c-1.34-0.02-1.95,0.45-2.08,1.81
		c-0.56,5.93-1.21,11.85-1.79,17.78c-1.17,12.07-2.27,24.14-3.49,36.2c-1.62,15.99-3.33,31.97-4.99,47.95
		c-0.27,2.6-0.47,5.21-0.71,7.87h133.17c-2.56-24.95-5.11-49.73-7.7-75C1044.13,280.19,1044.2,280.23,1044.27,280.28z M949.49,261.8
		c-0.89,2.68-3.37,4.16-6.24,3.73c-2.52-0.38-4.5-2.62-4.6-5.19c-0.1-2.69,1.53-4.8,4.51-5.42c0,1.75,0.01,3.43,0,5.12
		c-0.01,1.23,0.16,2.45,1.69,2.49c1.62,0.04,1.93-1.2,1.94-2.52c0.01-1.43,0-2.85,0-4.56C949.41,256.93,950.32,259.31,949.49,261.8z
		 M947.52,243.54c-0.1-0.59-0.25-1-0.22-1.39c1.16-13.45,2.53-26.86,6.77-39.78c1.89-5.75,4.32-11.26,8.08-16.08
		c7.79-9.97,20.41-11.55,30.24-3.57c7.48,6.07,11.24,14.14,11.79,23.75c0.09,1.49-0.38,2.03-1.87,2.44
		c-6.77,1.86-11.48,6-13.47,12.9c-0.04,0.14-0.09,0.27-0.13,0.41c-0.77,3.32-0.12,6.11,1.82,7.25c2.71,1.58,5.01,0.22,7.13-1.32
		c5.51-4.01,8.6-9.48,9.71-16.62c5.87,0.09,11.05,1.82,15.38,5.94c4.87,4.64,6.36,10.61,6.66,16.99c0.11,2.42-0.27,4.87-0.31,7.3
		c-0.02,1.45-0.67,1.84-2,1.78c-1.79-0.08-3.59-0.02-5.39-0.02c-23.78,0-47.55,0-71.33,0H947.52z M1003.56,212.3
		c-1.2,5.62-3.85,10.05-8.48,13.15c-0.68,0.46-1.68,0.45-2.53,0.66c-0.13-0.88-0.48-1.79-0.34-2.62
		C993.09,218.29,998.07,213.36,1003.56,212.3z M1030.81,262.95c-1.37,2.32-4.45,3.33-6.94,2.27c-2.49-1.06-3.91-3.94-3.23-6.56
		c0.66-2.52,2.94-4.12,5.77-3.86c-0.55,1.65-1.09,3.25-1.63,4.86c-0.41,1.21-0.43,2.52,1.02,2.73c0.72,0.1,1.91-0.75,2.34-1.49
		c0.77-1.31,1.13-2.86,1.69-4.37C1031.85,258.27,1032.16,260.66,1030.81,262.95z"/>
	<rect x="913.58" y="455.23" class="st5" width="1064.42" height="312.5"/>
	<text transform="matrix(1 0 0 1 913.5753 473.5563)" class="st6 st7">You Buy Or what</text>
	<g>
		<g>
			<path d="M974.43,408.23c1.65,0.48,3.25,0.95,4.84,1.41c3.51,1.03,7.03,2.05,10.54,3.08c1.6,0.47,3.2,0.96,4.8,1.47
				c0.28,0.09,0.56,0.26,0.79,0.44c0.25,0.19,0.24,0.42-0.02,0.66c-0.54,0.52-1.04,1.09-1.6,1.59c-0.4,0.36-0.86,0.65-1.3,0.97
				c-0.44,0.32-0.86,0.67-1.32,0.96c-2.23,1.39-4.64,2.39-7.21,2.98c-3,0.69-6.03,0.84-9.1,0.63c-0.29-0.02-0.43-0.12-0.53-0.39
				c-0.43-1.15-0.62-2.34-0.55-3.57c0.19-3.29,0.39-6.59,0.58-9.88C974.38,408.48,974.4,408.39,974.43,408.23z"/>
			<path d="M974.86,429.38c-3.47-2.15-5.28-5.22-5.13-9.35c0.1-2.64,0.22-5.28,0.32-7.93c0.15-3.85-2.16-7.17-5.82-8.36
				c-0.66-0.22-1.05-0.87-0.87-1.46c0.22-0.72,0.85-1.06,1.59-0.81c4.12,1.42,6.58,4.29,7.34,8.58c0.32,1.8,0.03,3.61-0.02,5.42
				c-0.04,1.65-0.17,3.29-0.19,4.94c-0.04,2.73,1.07,4.91,3.28,6.53c1.09,0.8,2.37,1.12,3.61,1.53c2.24,0.75,4.49,1.47,6.73,2.2
				c1.93,0.63,3.87,1.26,5.79,1.92c0.45,0.15,0.95,0.24,1.25,0.71c0.37,0.59,0.07,1.35-0.57,1.59c-0.59,0.22-1.07-0.07-1.57-0.23
				c-1.64-0.51-3.25-1.09-4.89-1.62c-1.76-0.57-3.53-1.1-5.28-1.67c-1.62-0.53-3.23-1.08-4.84-1.64
				C975.33,429.69,975.1,429.51,974.86,429.38z"/>
			<path d="M979.94,427.2c1.68-0.06,3.17-0.39,4.61-0.93c2.92-1.09,5.35-2.89,7.49-5.13c1.58-1.65,2.9-3.51,4.11-5.44
				c0.06-0.1,0.13-0.18,0.25-0.35c0.24,0.28,0.48,0.51,0.66,0.78c1.32,2,1.61,4.09,0.48,6.29c-0.34,0.66-0.62,1.35-0.93,2.02
				c-0.43,0.91-0.87,1.81-1.3,2.72c-0.38,0.82-0.75,1.65-1.14,2.46c-0.23,0.46-0.49,0.91-0.75,1.36c-0.15,0.25-0.38,0.26-0.65,0.18
				c-1.45-0.44-2.9-0.87-4.35-1.31c-2.74-0.83-5.47-1.67-8.2-2.5C980.15,427.34,980.11,427.3,979.94,427.2z"/>
			<path d="M987.44,436.9c1.56,0.89,1.78,2.58,1.03,3.84c-0.78,1.3-2.22,1.89-3.83,1.04c-1.39-0.74-1.81-2.47-1.01-3.86
				C984.41,436.54,986.04,436.11,987.44,436.9z"/>
			<path d="M977.31,437.15c-0.65,1.31-2.48,1.85-3.83,1.02c-1.3-0.79-1.77-2.43-1-3.81c0.75-1.35,2.4-1.79,3.79-1.08
				C977.55,433.94,978.2,435.76,977.31,437.15z"/>
		</g>
	</g>
	<g>
		<rect x="845.86" y="385.32" class="st5" width="712" height="254.08"/>
		<text transform="matrix(1 0 0 1 845.8575 434.0676)" class="st8 st9">You  Buy </text>
	</g>
	<rect x="951.49" y="296.03" class="st5" width="180.51" height="77.07"/>
	<text transform="matrix(1 0 0 1 951.4946 331.9188)" class="st10 st11 st12">WLA</text>
</g>
<rect x="922.04" y="718" class="st0" width="123.72" height="70.99"/>
</svg>
