<?xml version="1.0" encoding="utf-8"?>
<!-- Generator: Adobe Illustrator 24.3.0, SVG Export Plug-In . SVG Version: 6.00 Build 0)  -->
<svg version="1.1" id="Calque_1" xmlns="http://www.w3.org/2000/svg" xmlns:xlink="http://www.w3.org/1999/xlink" x="0px" y="0px"
	 viewBox="0 0 1920 1080" style="enable-background:new 0 0 1920 1080;" xml:space="preserve">
<style type="text/css">
	.st0{fill:#FFBA00;stroke:#FFBA00;stroke-miterlimit:10;}
	.st1{fill:#FFFFFF;}
	.st2{fill:#0012A2;}
	.st3{fill:none;}
	.st4{font-family:'BodoniMT';}
	.st5{font-size:140.3035px;}
	.st6{font-size:28.0607px;}
	.st7{fill:none;stroke:#0012A2;stroke-width:4;stroke-miterlimit:10;}
	.st8{fill:none;stroke:#0012A2;stroke-miterlimit:10;}
	.st9{stroke:#000000;stroke-width:4;stroke-miterlimit:10;}
	.st10{font-size:129px;}
</style>

<rect x="314.95" y="188.02" class="st1" width="315.22" height="100.96"/>
<path class="st2" d="M393.34,148.96c0.69,0.08,1.16,0.14,1.83,0.22c-0.41-1.2-0.78-2.19-1.08-3.2c-0.57-1.92-1.2-3.83-1.64-5.78
	c-0.88-3.92-0.77-7.9-0.56-11.88c0.02-0.3,0.02-0.61,0.08-0.91c0.14-0.61-0.03-1.06-0.52-1.46c-0.42-0.35-0.82-0.75-1.14-1.19
	c-0.17-0.23-0.23-0.61-0.17-0.89c0.03-0.13,0.45-0.25,0.69-0.26c1.95-0.04,1.91-0.04,2.23-2.01c0.16-0.97,0.5-1.91,0.8-2.85
	c0.33-1.01,0.67-2.02,1.06-3.02c0.24-0.62,0.57-1.19,1.08-1.79c0.02,0.29,0.14,0.61,0.04,0.85c-0.81,2.02-1.39,4.09-1.71,6.25
	c-0.08,0.54-0.29,1.06-0.39,1.61c-0.13,0.69,0.1,0.89,0.75,0.69c1.76-0.54,3.53-1.05,5.26-1.65c0.82-0.28,1.63-0.67,2.35-1.14
	c0.27-0.18,0.42-0.72,0.43-1.1c0.1-2.29,0.08-4.59,0.24-6.87c0.1-1.4,0.45-2.79,0.84-4.22c0.06,0.26,0.18,0.51,0.18,0.77
	c0.06,2.34,0.1,4.69,0.16,7.03c0.02,0.8,0.08,1.6,0.14,2.4c0.06,0.8,0.41,1.03,1.16,0.7c0.9-0.4,1.79-0.85,2.66-1.31
	c1.85-0.96,3.69-1.94,5.53-2.93c0.53-0.28,1.05-0.6,1.57-0.91c0.51-0.3,0.53-0.73,0.28-1.21c-1.1-2.08-2.21-4.16-3.31-6.25
	c-0.41-0.78-0.78-1.57-1.14-2.37c-0.07-0.15-0.03-0.34-0.05-0.52c0.07-0.03,0.13-0.06,0.2-0.09c1.71,2.41,3.43,4.81,5.14,7.22
	c1.27,1.8,1.29,1.85,3.14,0.67c2.72-1.73,5.4-3.51,8.09-5.29c0.99-0.66,1.01-0.89,0.01-1.5c-2.3-1.4-4.62-2.77-6.96-4.09
	c-0.79-0.45-1.69-0.7-2.53-1.24c0.27-0.02,0.57-0.13,0.81-0.06c1.34,0.41,2.7,0.76,3.98,1.31c2.27,0.98,4.48,2.09,6.71,3.17
	c0.57,0.27,1.04,0.21,1.52-0.2c1.24-1.05,2.5-2.08,3.76-3.11c0.23-0.19,0.47-0.39,0.73-0.54c0.16-0.09,0.38-0.07,0.58-0.1
	c-0.02,0.2,0.02,0.44-0.07,0.6c-0.77,1.24-1.56,2.46-2.35,3.68c-0.3,0.46-0.62,0.89-0.99,1.41c1.35,0.93,2.6,1.82,3.87,2.69
	c4.8,3.3,8.99,7.27,12.88,11.58c0.8,0.89,0.89,0.93,1.81,0.17c2.88-2.37,5.64-4.86,7.89-7.86c0.63-0.85,1.17-1.77,1.75-2.66
	c0.08,0,0.16,0,0.24,0c0.09,0.31,0.3,0.64,0.26,0.93c-0.21,1.49-0.23,3.08-0.8,4.44c-0.94,2.27-2.18,4.43-3.42,6.57
	c-0.73,1.25-1.7,2.38-2.59,3.53c-0.39,0.5-0.45,0.85-0.06,1.44c1.91,2.96,3.69,6.01,4.9,9.33c0.61,1.67,1.01,3.42,1.44,5.15
	c0.24,0.96,0.34,1.95,0.51,2.92c0.03,0.17,0.18,0.48,0.23,0.47c0.22-0.04,0.49-0.12,0.63-0.28c1.43-1.55,2.85-3.12,4.39-4.82
	c0.05,0.36,0.18,0.68,0.1,0.93c-0.42,1.25-0.74,2.56-1.38,3.69c-1.18,2.05-2.59,3.95-3.84,5.96c-0.51,0.82-0.9,1.74-1.2,2.66
	c-0.71,2.19-2.08,3.92-3.62,5.55c-0.45,0.48-0.95,0.91-1.44,1.35c-0.1,0.09-0.28,0.1-0.52,0.18c0.21-1.2,1.26-2.07,0.97-3.4
	c-0.21,0.08-0.41,0.1-0.53,0.2c-1.33,1.07-2.67,2.13-3.96,3.24c-0.2,0.17-0.26,0.58-0.25,0.88c0.01,0.46,0.16,0.93,0.19,1.39
	c0.04,0.66-0.2,1.16-0.83,1.49c-0.56,0.29-1.08,0.66-1.61,1.01c-1.05,0.69-1.81,0.7-2.81-0.07c-0.48-0.37-0.93-0.46-1.45-0.19
	c-1.6,0.85-3.19,1.71-4.99,2.67c1.12,0.08,2.05,0.15,3.13,0.24c-0.2,0.3-0.25,0.46-0.35,0.49c-2,0.66-3.96,1.62-6.14,1.4
	c-2.04-0.21-3.95,0.36-5.87,0.77c-2.09,0.45-4.13,0.5-6.21,0.13c-1.87-0.33-3.77-0.54-5.6-1.01c-1.86-0.48-3.68-1.14-5.46-1.87
	c-2.38-0.96-4.58-2.26-6.65-3.8c-2.76-2.04-5.11-4.47-7.1-7.23c-0.72-1-1.63-1.66-2.64-2.29
	C394.95,152.58,394.15,150.86,393.34,148.96z M432.86,132.97c0.44-0.23,0.85-0.4,1.22-0.64c1.32-0.84,2.65-1.69,3.95-2.57
	c2.48-1.68,4.94-3.38,7.41-5.08c0.47-0.33,0.62-0.71,0.21-1.24c-1.7-2.2-3.32-4.46-5.05-6.63c-2.6-3.27-5.68-6.08-8.78-8.86
	c-0.43-0.38-0.79-0.41-1.2,0.03c-2.88,3.09-6.05,5.88-9.42,8.42c-0.37,0.28-0.4,0.56-0.16,0.91c0.17,0.25,0.35,0.5,0.53,0.74
	c1.51,2.03,3.04,4.05,4.54,6.09c2.04,2.77,4.07,5.55,6.12,8.31C432.37,132.65,432.62,132.78,432.86,132.97z M427.7,136.23
	c-0.61-1.13-1.15-2.11-1.67-3.1c-1.11-2.12-2.22-4.23-3.32-6.35c-1.17-2.24-2.27-4.53-3.52-6.72c-0.76-1.34-0.48-1.85-2.26-0.71
	c-2.72,1.74-5.51,3.33-8.49,4.57c-0.96,0.4-1.9,0.84-2.88,1.28c0.16,0.46,0.3,0.81,0.41,1.17c0.69,2.17,1.25,4.39,2.1,6.5
	c1.05,2.62,2.33,5.16,3.53,7.72c0.37,0.8,0.78,1.58,1.27,2.31c0.2,0.29,0.7,0.62,0.98,0.56c0.54-0.11,1.04-0.48,1.55-0.74
	c1.66-0.86,3.33-1.71,4.98-2.59C422.78,138.86,425.17,137.58,427.7,136.23z M456.37,148.71c-0.18-0.75-0.32-1.37-0.48-1.98
	c-0.66-2.53-1.15-5.11-2.03-7.56c-0.99-2.73-2.35-5.34-3.55-7.99c-0.28-0.61-0.6-0.68-1.13-0.18c-1.54,1.46-3.07,2.93-4.68,4.31
	c-1.9,1.64-3.87,3.2-5.83,4.76c-0.41,0.33-0.49,0.6-0.18,1.03c1.09,1.52,2.19,3.03,3.25,4.58c1.91,2.79,3.82,5.6,5.68,8.42
	c0.37,0.56,0.68,0.66,1.2,0.31c0.8-0.53,1.62-1.04,2.41-1.6c1.67-1.17,3.32-2.36,4.96-3.57
	C456.18,149.12,456.28,148.84,456.37,148.71z M393.39,129.85c-0.08,0.01-0.15,0.02-0.23,0.03c0.39,2.86,0.76,5.73,1.17,8.59
	c0.5,3.5,1.96,6.69,3.28,9.92c0.21,0.51,0.57,0.88,1.23,0.69c0.79-0.22,1.61-0.37,2.39-0.63c2.19-0.74,4.37-1.5,6.54-2.3
	c0.23-0.09,0.5-0.45,0.51-0.7c0.02-0.39-0.14-0.8-0.28-1.18c-0.52-1.44-1.12-2.87-1.6-4.33c-0.5-1.51-0.96-3.04-1.33-4.59
	c-0.59-2.49-1.16-4.98-1.59-7.5c-0.33-1.93-0.32-2.01-2.23-1.49c-0.03,0.01-0.05,0.02-0.08,0.02c-2.26,0.55-4.52,0.98-6.86,0.59
	c-0.64-0.11-0.94,0.16-0.93,0.81C393.4,128.47,393.39,129.16,393.39,129.85z M441.18,158.91c-1.08-1.65-2.09-3.09-3.01-4.59
	c-1.85-3.03-3.66-6.09-5.46-9.15c-0.29-0.5-0.59-0.59-1.07-0.32c-2.07,1.2-4.12,2.44-6.23,3.56c-1.87,0.99-3.8,1.86-5.73,2.73
	c-0.86,0.39-0.99,0.56-0.39,1.27c1.15,1.37,2.33,2.72,3.54,4.04c2.56,2.8,5.53,5.13,8.71,7.19c0.17,0.11,0.5,0.17,0.67,0.08
	c2.11-1.07,4.21-2.16,6.29-3.27C439.4,159.99,440.25,159.45,441.18,158.91z M419.61,168.17c0.55-0.12,1.01-0.21,1.46-0.33
	c1.14-0.31,2.27-0.62,3.4-0.96c0.24-0.07,0.44-0.26,0.66-0.4c-0.16-0.2-0.29-0.44-0.49-0.59c-1.79-1.42-3.77-2.64-5.34-4.26
	c-2.06-2.12-3.84-4.53-5.69-6.85c-0.89-1.11-0.83-1.13-2.17-0.72c-0.97,0.29-1.95,0.6-2.95,0.74c-1.8,0.25-3.61,0.38-5.42,0.58
	c-0.22,0.02-0.54,0.12-0.62,0.28c-0.07,0.16,0.05,0.48,0.18,0.65c2.42,2.87,5,5.59,8.2,7.6c2.09,1.31,4.33,2.37,6.52,3.49
	C418.07,167.73,418.89,167.92,419.61,168.17z"/>
<rect x="454.59" y="82.02" class="st3" width="350.76" height="189.02"/>
<text transform="matrix(1 0 0 1 454.5874 174.9189)" class="st2 st4 st5">WLA</text>
<rect x="515.62" y="187.9" class="st3" width="391.68" height="122.77"/>
<text transform="matrix(1 0 0 1 515.6221 206.48)" class="st2 st4 st6">You Buy Or What</text>
<g>
	<path class="st2" d="M658.21,93.31c2.27,0.66,4.46,1.3,6.65,1.94c4.83,1.41,9.65,2.81,14.48,4.23c2.2,0.65,4.4,1.32,6.59,2.02
		c0.39,0.12,0.76,0.36,1.09,0.61c0.34,0.27,0.33,0.58-0.02,0.91c-0.75,0.71-1.43,1.49-2.19,2.18c-0.55,0.5-1.19,0.89-1.79,1.33
		c-0.6,0.44-1.18,0.93-1.81,1.32c-3.07,1.91-6.36,3.28-9.9,4.09c-4.12,0.94-8.29,1.16-12.49,0.86c-0.4-0.03-0.59-0.17-0.73-0.54
		c-0.59-1.58-0.85-3.22-0.76-4.9c0.26-4.52,0.53-9.05,0.8-13.57C658.14,93.66,658.17,93.53,658.21,93.31z"/>
	<path class="st2" d="M658.8,122.36c-4.76-2.95-7.24-7.17-7.04-12.84c0.13-3.63,0.3-7.26,0.44-10.88c0.21-5.28-2.96-9.84-7.99-11.47
		c-0.91-0.3-1.45-1.19-1.2-2c0.3-0.99,1.16-1.46,2.18-1.11c5.66,1.96,9.04,5.89,10.08,11.79c0.44,2.47,0.04,4.96-0.03,7.44
		c-0.06,2.26-0.23,4.52-0.27,6.79c-0.05,3.75,1.47,6.74,4.5,8.97c1.49,1.1,3.25,1.53,4.96,2.1c3.08,1.02,6.16,2.01,9.25,3.02
		c2.66,0.87,5.31,1.74,7.96,2.64c0.62,0.21,1.31,0.33,1.71,0.98c0.51,0.81,0.1,1.86-0.79,2.19c-0.81,0.3-1.48-0.1-2.15-0.31
		c-2.25-0.7-4.47-1.49-6.71-2.22c-2.41-0.78-4.84-1.5-7.26-2.29c-2.23-0.72-4.44-1.48-6.65-2.25
		C659.45,122.78,659.14,122.54,658.8,122.36z"/>
	<path class="st2" d="M665.77,119.37c2.3-0.09,4.35-0.54,6.33-1.28c4-1.5,7.35-3.97,10.28-7.04c2.17-2.27,3.98-4.82,5.64-7.47
		c0.08-0.13,0.18-0.25,0.35-0.48c0.33,0.39,0.66,0.7,0.91,1.08c1.81,2.75,2.21,5.61,0.66,8.63c-0.46,0.9-0.85,1.85-1.28,2.77
		c-0.59,1.25-1.2,2.49-1.78,3.74c-0.53,1.12-1.02,2.26-1.57,3.38c-0.31,0.64-0.67,1.26-1.03,1.87c-0.2,0.34-0.52,0.36-0.9,0.25
		c-1.99-0.61-3.98-1.2-5.97-1.8c-3.76-1.14-7.51-2.29-11.26-3.44C666.07,119.55,666,119.5,665.77,119.37z"/>
	<path class="st2" d="M676.08,132.69c2.15,1.22,2.44,3.54,1.41,5.27c-1.07,1.79-3.06,2.6-5.25,1.43c-1.91-1.02-2.48-3.39-1.39-5.31
		C671.91,132.2,674.16,131.6,676.08,132.69z"/>
	<path class="st2" d="M662.16,133.02c-0.9,1.8-3.41,2.54-5.27,1.41c-1.78-1.09-2.43-3.34-1.38-5.23c1.03-1.85,3.3-2.45,5.2-1.48
		C662.49,128.62,663.38,131.13,662.16,133.02z"/>
</g>
<line class="st7" x1="737.32" y1="202.69" x2="778.38" y2="202.91"/>
<line class="st7" x1="471.86" y1="203.32" x2="512.91" y2="203.55"/>

</g>
<line class="st9" x1="1511.32" y1="192.69" x2="1552.38" y2="192.91"/>
<line class="st9" x1="1246.86" y1="194.32" x2="1287.91" y2="194.55"/>
<rect x="912" y="654.92" class="st3" width="493" height="254.08"/>
<text transform="matrix(1 0 0 1 912 740.3291)" class="st4 st10">You Buy </text>
</svg>
